PathFileType	4	(X/Y/Z)	Walk3.trc
DataRate	CameraRate	NumFrames	NumMarkers	Units	OrigDataRate	OrigDataStartFrame	OrigNumFrames
200.000000	200.000000	6	60	mm	200.000000	485	567
Frame#	Times		LFHD		RFHD		CLAV		STRN		LASI		RASI		RACR1		RUA1		RElbow		RFA1		RWRR		RWRU		RCAR		LACR1		LUA1		LElbow		LFA1		LWRR		LWRU		LCAR		RTH3		RTH4		RMFC		RTB1		RTB2		RTB4		LTH1		LTH3		LLFC		LMFC		LTB1		LTB2		LTB4		LMT1		RTB3		LTB3		RMMAL		RMT1		RTH2		LTH4		LTH2		RToe		RElbowM		RLFC		RBHD		LToe		RTH1		RCAL		C7		RBack		RLMAL		RPSI		LMT5		T10		LLMAL		LPSI		LMMAL		LBHD		LCAL		LElbowM
			X1	Y1	Z1	X2	Y2	Z2	X3	Y3	Z3	X4	Y4	Z4	X5	Y5	Z5	X6	Y6	Z6	X7	Y7	Z7	X8	Y8	Z8	X9	Y9	Z9	X10	Y10	Z10	X11	Y11	Z11	X12	Y12	Z12	X13	Y13	Z13	X14	Y14	Z14	X15	Y15	Z15	X16	Y16	Z16	X17	Y17	Z17	X18	Y18	Z18	X19	Y19	Z19	X20	Y20	Z20	X21	Y21	Z21	X22	Y22	Z22	X23	Y23	Z23	X24	Y24	Z24	X25	Y25	Z25	X26	Y26	Z26	X27	Y27	Z27	X28	Y28	Z28	X29	Y29	Z29	X30	Y30	Z30	X31	Y31	Z31	X32	Y32	Z32	X33	Y33	Z33	X34	Y34	Z34	X35	Y35	Z35	X36	Y36	Z36	X37	Y37	Z37	X38	Y38	Z38	X39	Y39	Z39	X40	Y40	Z40	X41	Y41	Z41	X42	Y42	Z42	X43	Y43	Z43	X44	Y44	Z44	X45	Y45	Z45	X46	Y46	Z46	X47	Y47	Z47	X48	Y48	Z48	X49	Y49	Z49	X50	Y50	Z50	X51	Y51	Z51	X52	Y52	Z52	X53	Y53	Z53	X54	Y54	Z54	X55	Y55	Z55	X56	Y56	Z56	X57	Y57	Z57	X58	Y58	Z58	X59	Y59	Z59	X60	Y60	Z60

485	2.425	1011.3	1649.3	40.649	1010.6	1635.8	-57.692	1024.6	1387.1	22.208	1098	1232.4	30.463	979.76	963.35	-132.09	987.45	972.1	223.42	917.21	1481.5	192.48	910.73	1317.3	319.51	937.38	1174.3	375.93	1006.7	1040	386.44	1056.8	933.73	312.94	1053.1	935.82	395.16	1107	865.62	359.28	899.81	1436.7	-155.99	834.75	1266.8	-225.87	785.18	1107	-259.36	781.84	965.89	-266.29	819.71	838.04	-207.04	764.71	827.06	-256.43	808.64	748.2	-233.87	842.51	584.82	264.52	847.89	670.28	268.94	809.97	469.93	106.39	770.24	345.73	195.29	683.79	310.42	244.61	700.71	293.96	188.52	971.48	756.58	-158.88	1032.4	598.29	-136.13	1039.3	514.65	-134.97	1069.9	513.56	19.527	1129.6	404.61	-76.315	1099.8	310.09	-110.02	1132.8	322.06	-57.891	1211.6	37.479	-30.419	632.23	242.18	181.56	1127.3	235.92	-41.759	506.44	179.75	122.59	532.58	43.565	148.01	904.55	668.87	254.79	1000.2	677.92	-146.44	1054.3	700.68	-134.77	563.67	23.832	188.29	895.23	1092.4	282.45	799.09	481.34	260.71	864.47	1549.9	-58.587	1257.9	38.621	-68.724	851.42	756.87	273.84	421.3	228.33	153.73	827.26	1463.2	25.787	770.98	1356.1	156.19	470.38	199.75	203.8	722.7	1008.4	84.655	1142.4	24.107	-104.65	765.04	1147.5	49.924	1046.6	72.831	-36.53	736.11	1013.2	0.35268	1079.8	84.367	46.435	880.26	1575.2	89.396	1003.5	44.326	23.736	730.03	1067.4	-153.82
486	2.43	1017.5	1650.3	39.685	1017	1636.9	-58.652	1030.9	1388.3	21.092	1104.3	1233.6	29.395	985.89	964.52	-133.5	994.22	973.12	221.74	923.79	1482.7	191.48	917.41	1318.4	318.41	943.5	1175.1	374.32	1011.6	1040	385.34	1060.7	933.01	312.15	1056.9	935.42	394.36	1109.8	864.15	358.69	906	1437.9	-156.89	841.47	1267.7	-226.76	792.49	1107.7	-260.23	790.21	966.65	-267.4	829.43	838.98	-208.7	774.24	827.75	-257.79	819.15	749.34	-236.19	854.27	584.72	264.54	858.42	670.28	268.67	823.72	469.35	106.58	782.14	346.3	195.72	694.98	312.29	245	711.76	295.59	189.07	976.66	756.95	-159.65	1036.4	598.29	-136.6	1042.9	514.63	-135.28	1073.6	513.53	19.248	1132.4	403.97	-76.424	1102	309.61	-110.07	1135	321.44	-57.895	1211.8	37.395	-30.319	642.49	244.81	182.23	1128.8	235.35	-41.652	515.64	184.38	123.39	538.2	46.42	148.22	915.03	669.63	254.41	1004.8	678.11	-147.01	1059.1	700.53	-135.5	567.56	23.681	188.72	901.18	1093.5	280.9	812	481.36	260.99	870.75	1551	-59.708	1258.4	37.859	-68.732	860.68	756.93	273.16	431.68	234.92	154.74	833.55	1464.4	24.903	777.56	1357.4	155.58	479.93	204.92	204.64	729.19	1009	83.662	1142.4	24.252	-104.65	771.37	1148.6	48.898	1046.9	72.875	-36.352	742.51	1014.4	-0.83406	1080.1	84.206	46.676	886.49	1576.3	88.369	1003.6	44.505	23.924	738.16	1067.5	-154.43
487	2.435	1023.7	1651.4	38.809	1023.3	1638	-59.53	1037.1	1389.5	20.028	1110.6	1234.8	28.34	991.97	965.68	-134.88	1000.9	974.17	220.09	930.32	1484	190.54	924.01	1319.6	317.36	949.61	1175.9	372.77	1016.5	1040	384.28	1064.5	932.32	311.41	1060.8	935.05	393.61	1112.5	862.72	358.14	912.18	1439.2	-157.75	848.18	1268.7	-227.64	799.8	1108.5	-261.12	798.61	967.45	-268.52	839.23	839.99	-210.38	783.83	828.51	-259.16	829.78	750.6	-238.55	866.07	584.74	264.52	868.98	670.37	268.38	837.56	468.98	106.67	794.27	347.01	195.97	706.5	314.13	245.24	723.1	297.3	189.42	981.81	757.36	-160.38	1040.5	598.32	-137.05	1046.4	514.61	-135.58	1077.2	513.47	18.985	1135.1	403.35	-76.519	1104.1	309.14	-110.12	1137.1	320.83	-57.892	1211.9	37.35	-30.244	653.08	247.49	182.7	1130.3	234.79	-41.545	525.21	188.96	124.06	544.63	49.432	148.49	925.53	670.49	254.03	1009.3	678.33	-147.57	1063.8	700.4	-136.15	572.26	23.694	189.18	907.16	1094.7	279.42	825	481.45	261.22	877.01	1552.1	-60.761	1258.8	37.161	-68.774	869.95	757.07	272.47	442.34	241.23	155.73	839.8	1465.5	24.056	784.08	1358.7	154.95	489.92	209.97	205.39	735.61	1009.7	82.637	1142.4	24.382	-104.64	777.66	1149.7	47.861	1047.3	72.917	-36.188	748.86	1015.7	-2.0429	1080.4	84.058	46.896	892.69	1577.5	87.408	1003.7	44.675	24.098	746.3	1067.7	-155.06
488	2.44	1029.9	1652.6	38.019	1029.6	1639.1	-60.325	1043.4	1390.7	19.017	1116.8	1236.1	27.299	998.01	966.81	-136.24	1007.4	975.24	218.5	936.79	1485.2	189.66	930.52	1320.7	316.37	955.69	1176.7	371.3	1021.4	1040.1	383.27	1068.3	931.64	310.71	1064.7	934.71	392.89	1115.3	861.33	357.63	918.35	1440.5	-158.58	854.89	1269.7	-228.51	807.12	1109.3	-262.02	807.04	968.3	-269.65	849.1	841.08	-212.08	793.5	829.31	-260.51	840.52	751.94	-240.95	877.89	584.87	264.44	879.54	670.56	268.05	851.43	468.84	106.68	806.6	347.86	196.04	718.33	315.95	245.34	734.68	299.09	189.58	986.91	757.79	-161.08	1044.4	598.35	-137.48	1049.8	514.59	-135.89	1080.7	513.39	18.733	1137.7	402.75	-76.602	1106.2	308.69	-110.17	1139.1	320.24	-57.882	1212.1	37.332	-30.192	663.98	250.2	182.96	1131.7	234.26	-41.44	535.13	193.47	124.59	551.9	52.569	148.79	936.03	671.46	253.64	1013.8	678.56	-148.11	1068.5	700.27	-136.73	577.82	23.912	189.66	913.14	1095.8	278	838.09	481.65	261.38	883.24	1553.3	-61.746	1259.2	36.517	-68.846	879.21	757.29	271.78	453.25	247.21	156.66	846.03	1466.6	23.249	790.54	1359.9	154.31	500.32	214.87	206.05	741.97	1010.4	81.586	1142.4	24.498	-104.64	783.91	1150.7	46.823	1047.6	72.957	-36.035	755.16	1016.9	-3.264	1080.6	83.924	47.097	898.84	1578.6	86.511	1003.8	44.837	24.256	754.44	1067.9	-155.71
489	2.445	1036.1	1653.7	37.315	1035.9	1640.3	-61.039	1049.6	1392	18.059	1122.9	1237.3	26.27	1004	967.93	-137.56	1013.8	976.32	216.97	943.22	1486.4	188.84	936.95	1321.8	315.42	961.75	1177.5	369.89	1026.3	1040.1	382.3	1072.1	930.98	310.06	1068.5	934.4	392.21	1118.1	859.99	357.16	924.49	1441.8	-159.37	861.58	1270.7	-229.38	814.47	1110.1	-262.94	815.52	969.19	-270.79	859.05	842.23	-213.8	803.23	830.15	-261.87	851.35	753.37	-243.37	889.72	585.14	264.3	890.09	670.86	267.69	865.28	468.95	106.6	819.11	348.85	195.93	730.44	317.73	245.3	746.5	300.96	189.54	991.98	758.23	-161.76	1048.3	598.4	-137.9	1053.2	514.56	-136.2	1084	513.27	18.488	1140.2	402.16	-76.677	1108.2	308.25	-110.22	1141	319.67	-57.868	1212.3	37.331	-30.157	675.18	252.92	183.01	1133.1	233.75	-41.337	545.42	197.86	124.97	560.02	55.795	149.13	946.52	672.55	253.26	1018.3	678.81	-148.63	1073.1	700.15	-137.25	584.31	24.368	190.14	919.1	1096.9	276.66	851.23	481.96	261.48	889.44	1554.4	-62.665	1259.5	35.921	-68.941	888.47	757.61	271.07	464.38	252.83	157.5	852.22	1467.8	22.482	796.95	1361.2	153.66	511.12	219.59	206.59	748.27	1011.2	80.517	1142.4	24.597	-104.63	790.12	1151.8	45.789	1047.9	72.997	-35.895	761.41	1018.2	-4.4867	1080.9	83.803	47.28	904.96	1579.7	85.677	1003.9	44.993	24.397	762.59	1068.2	-156.38
490	2.45	1042.2	1654.8	36.695	1042.1	1641.4	-61.672	1055.7	1393.2	17.152	1129.1	1238.5	25.256	1010	969.02	-138.84	1020.2	977.42	215.51	949.59	1487.6	188.08	943.3	1322.8	314.52	967.78	1178.3	368.57	1031.2	1040.2	381.38	1075.8	930.33	309.45	1072.4	934.1	391.57	1120.9	858.7	356.73	930.61	1443.1	-160.12	868.27	1271.8	-230.23	821.83	1111	-263.88	824.03	970.1	-271.94	869.06	843.44	-215.54	813.03	831.03	-263.22	862.27	754.88	-245.82	901.52	585.55	264.11	900.64	671.29	267.3	879.07	469.31	106.46	831.79	349.99	195.67	742.81	319.48	245.14	758.54	302.9	189.33	996.99	758.69	-162.41	1052.1	598.46	-138.31	1056.4	514.54	-136.5	1087.1	513.13	18.247	1142.6	401.58	-76.746	1110.1	307.83	-110.27	1142.9	319.11	-57.85	1212.4	37.34	-30.138	686.67	255.64	182.87	1134.4	233.26	-41.236	556.07	202.09	125.2	569.02	59.072	149.47	957	673.77	252.86	1022.7	679.08	-149.15	1077.6	700.02	-137.73	591.79	25.084	190.61	925.01	1097.9	275.4	864.41	482.41	261.52	895.61	1555.6	-63.519	1259.8	35.368	-69.055	897.72	758.02	270.35	475.73	258.03	158.21	858.38	1468.9	21.756	803.29	1362.4	153	522.3	224.08	207.01	754.53	1012	79.435	1142.4	24.682	-104.63	796.3	1152.9	44.766	1048.2	73.037	-35.766	767.6	1019.5	-5.7001	1081.1	83.695	47.445	911.05	1580.8	84.906	1004	45.142	24.522	770.74	1068.5	-157.09
